<?xml version="1.0" standalone="no"?>
<!DOCTYPE svg PUBLIC "-//W3C//DTD SVG 20010904//EN"
 "http://www.w3.org/TR/2001/REC-SVG-20010904/DTD/svg10.dtd">
<svg version="1.0" xmlns="http://www.w3.org/2000/svg"
 width="260.000000pt" height="260.000000pt" viewBox="0 0 260.000000 260.000000"
 preserveAspectRatio="xMidYMid meet">
<metadata>
Created by potrace 1.11, written by Peter Selinger 2001-2013
</metadata>
<g transform="translate(0.000000,260.000000) scale(0.100000,-0.100000)"
fill="#000000" stroke="none">
<path d="M250 1300 l0 -1050 1050 0 1050 0 0 115 0 115 -924 0 c-827 0 -926 2
-940 16 -14 14 -16 100 -16 803 0 751 1 789 18 804 17 16 97 17 940 17 l922 0
0 115 0 115 -1050 0 -1050 0 0 -1050z"/>
<path d="M720 1300 l0 -570 815 0 815 0 0 570 0 570 -815 0 -815 0 0 -570z
m1432 343 c17 -15 18 -39 18 -344 0 -284 -2 -330 -16 -343 -14 -14 -81 -16
-589 -16 -508 0 -575 2 -589 16 -14 13 -16 58 -16 341 0 290 2 328 17 345 15
17 47 18 586 18 517 0 572 -2 589 -17z"/>
<path d="M1210 1300 l0 -110 355 0 355 0 0 110 0 110 -355 0 -355 0 0 -110z"/>
</g>
</svg>
